<svg width="310" height="48" viewBox="0 0 310 48" fill="none" xmlns="http://www.w3.org/2000/svg">
<path d="M18.3212 7.49231C18.6609 7.49231 18.8308 7.65477 18.8308 7.97969V10.1508C18.8308 10.4905 18.6609 10.6603 18.3212 10.6603H11.3649V22.5126C11.3649 22.8375 11.2025 23 10.8775 23H8.46277C8.13785 23 7.97539 22.8375 7.97539 22.5126V10.6603H1.01908C0.679385 10.6603 0.509539 10.4905 0.509539 10.1508V7.97969C0.509539 7.65477 0.679385 7.49231 1.01908 7.49231H18.3212ZM33.2422 7.49231C34.3647 7.49231 35.3173 7.60308 36.1 7.82461C36.8976 8.03138 37.54 8.37108 38.0274 8.84369C38.5296 9.30154 38.8914 9.89969 39.113 10.6382C39.3345 11.3766 39.4453 12.2775 39.4453 13.3409V17.1514C39.4453 18.2148 39.3345 19.1231 39.113 19.8763C38.8914 20.6148 38.5296 21.2203 38.0274 21.6929C37.54 22.1508 36.8976 22.4831 36.1 22.6898C35.3173 22.8966 34.3647 23 33.2422 23H26.3967C25.2742 23 24.3216 22.8966 23.5388 22.6898C22.756 22.4831 22.1136 22.1508 21.6114 21.6929C21.124 21.2203 20.7622 20.6148 20.5259 19.8763C20.3043 19.1231 20.1936 18.2148 20.1936 17.1514V13.3409C20.1936 12.2775 20.3043 11.3766 20.5259 10.6382C20.7622 9.89969 21.124 9.30154 21.6114 8.84369C22.1136 8.37108 22.756 8.03138 23.5388 7.82461C24.3216 7.60308 25.2742 7.49231 26.3967 7.49231H33.2422ZM23.5831 16.9077C23.5831 17.4837 23.6274 17.9711 23.716 18.3698C23.8194 18.7538 23.9819 19.064 24.2034 19.3003C24.425 19.5218 24.7203 19.6843 25.0896 19.7877C25.4736 19.8763 25.9536 19.9206 26.5296 19.9206H33.1093C33.6853 19.9206 34.1579 19.8763 34.5271 19.7877C34.9111 19.6843 35.2139 19.5218 35.4354 19.3003C35.657 19.064 35.812 18.7538 35.9007 18.3698C36.004 17.9711 36.0557 17.4837 36.0557 16.9077V13.5846C36.0557 13.0086 36.004 12.5286 35.9007 12.1446C35.812 11.7458 35.657 11.4357 35.4354 11.2142C35.2139 10.9778 34.9111 10.8154 34.5271 10.7268C34.1579 10.6234 33.6853 10.5717 33.1093 10.5717H26.5296C25.9536 10.5717 25.4736 10.6234 25.0896 10.7268C24.7203 10.8154 24.425 10.9778 24.2034 11.2142C23.9819 11.4357 23.8194 11.7458 23.716 12.1446C23.6274 12.5286 23.5831 13.0086 23.5831 13.5846V16.9077ZM55.6254 7.49231C57.1466 7.49231 58.2248 7.79508 58.8598 8.40061C59.5097 9.00615 59.8346 9.92185 59.8346 11.1477V12.2111C59.8346 13.4517 59.362 14.3895 58.4168 15.0246C59.4358 15.6154 59.9454 16.568 59.9454 17.8825V19.1674C59.9454 19.7582 59.8789 20.2898 59.746 20.7625C59.6131 21.2351 59.3915 21.6412 59.0814 21.9809C58.786 22.3058 58.3872 22.5569 57.8851 22.7342C57.3829 22.9114 56.7626 23 56.0241 23H42.8648C42.4217 23 42.2001 22.7785 42.2001 22.3354V8.15692C42.2001 7.71384 42.4217 7.49231 42.8648 7.49231H55.6254ZM45.5897 16.3538V19.6548C45.5897 19.8468 45.6857 19.9428 45.8777 19.9428H54.9608C55.5515 19.9428 55.9724 19.8394 56.2235 19.6326C56.4746 19.4111 56.6001 19.064 56.6001 18.5914V17.7495C56.6001 17.2917 56.4598 16.9446 56.1792 16.7083C55.9134 16.472 55.4112 16.3538 54.6728 16.3538H45.5897ZM45.5897 13.9391H54.6728C55.4112 13.9391 55.9134 13.8283 56.1792 13.6068C56.4451 13.3852 56.578 13.0603 56.578 12.632V11.8788C56.578 11.4209 56.4451 11.0886 56.1792 10.8818C55.9281 10.6603 55.5146 10.5495 54.9386 10.5495H45.8777C45.6857 10.5495 45.5897 10.6455 45.5897 10.8375V13.9391ZM72.8811 7.49231C73.2061 7.49231 73.3685 7.65477 73.3685 7.97969V13.8726H75.2294C75.5839 13.8726 75.8793 13.8652 76.1156 13.8505C76.3519 13.8209 76.5587 13.7692 76.7359 13.6954C76.9131 13.6215 77.0756 13.5182 77.2233 13.3852C77.371 13.2523 77.5261 13.0825 77.6885 12.8757L81.499 7.78031C81.5728 7.67692 81.6467 7.60308 81.7205 7.55877C81.7944 7.51446 81.9347 7.49231 82.1414 7.49231H84.8885C85.0805 7.49231 85.1913 7.55877 85.2208 7.69169C85.2651 7.80985 85.2504 7.92061 85.1765 8.024L80.8787 13.5846C80.6276 13.9243 80.3913 14.2123 80.1698 14.4486C79.963 14.6849 79.7562 14.8917 79.5494 15.0689C80.1254 15.4234 80.6867 15.9551 81.2331 16.664L85.7747 22.424C85.8338 22.4978 85.8559 22.616 85.8411 22.7785C85.8264 22.9262 85.7082 23 85.4867 23H82.651C82.459 23 82.3261 22.9778 82.2522 22.9335C82.1784 22.8892 82.1045 22.8154 82.0307 22.712L77.9544 17.4394C77.659 17.0554 77.3414 16.7969 77.0018 16.664C76.6621 16.5163 76.1525 16.4425 75.4731 16.4425H73.3685V22.5126C73.3685 22.8375 73.2061 23 72.8811 23H70.4885C70.1488 23 69.979 22.8375 69.979 22.5126V7.97969C69.979 7.65477 70.1488 7.49231 70.4885 7.49231H72.8811ZM90.535 7.49231C90.8599 7.49231 91.0224 7.65477 91.0224 7.97969V19.544C91.0224 19.6917 91.0814 19.7655 91.1996 19.7655H91.399C91.5467 19.7655 91.6501 19.7138 91.7091 19.6105L98.2667 8.77723C98.4144 8.51138 98.5547 8.29723 98.6876 8.13477C98.8353 7.97231 98.9978 7.84677 99.175 7.75815C99.367 7.65477 99.5885 7.58831 99.8396 7.55877C100.105 7.51446 100.438 7.49231 100.837 7.49231H102.786C103.465 7.49231 103.968 7.65477 104.293 7.97969C104.617 8.28985 104.78 8.89538 104.78 9.79631V22.5126C104.78 22.8375 104.61 23 104.27 23H101.878C101.553 23 101.39 22.8375 101.39 22.5126V10.9483C101.39 10.8006 101.331 10.7268 101.213 10.7268H101.014C100.866 10.7268 100.77 10.7785 100.726 10.8818L94.1018 21.6929C93.9393 21.9588 93.7842 22.1729 93.6365 22.3354C93.5036 22.4978 93.3485 22.6308 93.1713 22.7342C92.9941 22.8375 92.7799 22.9114 92.5288 22.9557C92.2778 22.9852 91.9528 23 91.5541 23H89.6488C88.9694 23 88.4599 22.8449 88.1202 22.5348C87.7953 22.2098 87.6328 21.5969 87.6328 20.696V7.97969C87.6328 7.65477 87.8027 7.49231 88.1424 7.49231H90.535ZM111.653 7.49231C111.978 7.49231 112.141 7.65477 112.141 7.97969V22.5126C112.141 22.8375 111.978 23 111.653 23H109.261C108.921 23 108.751 22.8375 108.751 22.5126V7.97969C108.751 7.65477 108.921 7.49231 109.261 7.49231H111.653ZM114.157 3.39384C114.481 3.39384 114.644 3.52677 114.644 3.79261V5.89723C114.644 6.16308 114.481 6.296 114.157 6.296H111.985C111.661 6.296 111.498 6.16308 111.498 5.89723V3.79261C111.498 3.52677 111.661 3.39384 111.985 3.39384H114.157ZM108.95 3.39384C109.275 3.39384 109.438 3.52677 109.438 3.79261V5.89723C109.438 6.16308 109.275 6.296 108.95 6.296H106.779C106.454 6.296 106.292 6.16308 106.292 5.89723V3.79261C106.292 3.52677 106.454 3.39384 106.779 3.39384H108.95ZM129.572 7.49231C131.094 7.49231 132.172 7.79508 132.807 8.40061C133.457 9.00615 133.782 9.92185 133.782 11.1477V12.2111C133.782 13.4517 133.309 14.3895 132.364 15.0246C133.383 15.6154 133.892 16.568 133.892 17.8825V19.1674C133.892 19.7582 133.826 20.2898 133.693 20.7625C133.56 21.2351 133.339 21.6412 133.028 21.9809C132.733 22.3058 132.334 22.5569 131.832 22.7342C131.33 22.9114 130.71 23 129.971 23H116.812C116.369 23 116.147 22.7785 116.147 22.3354V8.15692C116.147 7.71384 116.369 7.49231 116.812 7.49231H129.572ZM119.537 16.3538V19.6548C119.537 19.8468 119.633 19.9428 119.825 19.9428H128.908C129.499 19.9428 129.92 19.8394 130.171 19.6326C130.422 19.4111 130.547 19.064 130.547 18.5914V17.7495C130.547 17.2917 130.407 16.9446 130.126 16.7083C129.86 16.472 129.358 16.3538 128.62 16.3538H119.537ZM119.537 13.9391H128.62C129.358 13.9391 129.86 13.8283 130.126 13.6068C130.392 13.3852 130.525 13.0603 130.525 12.632V11.8788C130.525 11.4209 130.392 11.0886 130.126 10.8818C129.875 10.6603 129.462 10.5495 128.886 10.5495H119.825C119.633 10.5495 119.537 10.6455 119.537 10.8375V13.9391ZM139.408 7.49231C139.733 7.49231 139.895 7.65477 139.895 7.97969V13.7397H150.263V7.97969C150.263 7.65477 150.425 7.49231 150.75 7.49231H153.143C153.483 7.49231 153.653 7.65477 153.653 7.97969V22.5126C153.653 22.8375 153.483 23 153.143 23H150.75C150.425 23 150.263 22.8375 150.263 22.5126V16.6197H139.895V22.5126C139.895 22.8375 139.733 23 139.408 23H137.015C136.675 23 136.505 22.8375 136.505 22.5126V7.97969C136.505 7.65477 136.675 7.49231 137.015 7.49231H139.408ZM166.419 7.49231C166.98 7.49231 167.453 7.61046 167.837 7.84677C168.221 8.06831 168.597 8.51138 168.966 9.176L176.299 22.4905C176.373 22.6382 176.388 22.7637 176.344 22.8671C176.314 22.9557 176.211 23 176.033 23H173.22C172.969 23 172.799 22.904 172.71 22.712L171.137 19.8542H160.725L159.197 22.712C159.093 22.904 158.923 23 158.687 23H155.807C155.615 23 155.497 22.9557 155.453 22.8671C155.423 22.7637 155.445 22.6382 155.519 22.4905L162.785 9.176C163.155 8.51138 163.517 8.06831 163.871 7.84677C164.225 7.61046 164.639 7.49231 165.112 7.49231H166.419ZM162.121 17.2843H169.742L166.219 10.7932C166.16 10.6898 166.079 10.6382 165.976 10.6382H165.843C165.739 10.6382 165.658 10.6898 165.599 10.7932L162.121 17.2843ZM193.304 7.49231C193.629 7.49231 193.791 7.65477 193.791 7.97969V10.1508C193.791 10.4905 193.629 10.6603 193.304 10.6603H183.445C182.869 10.6603 182.389 10.712 182.005 10.8154C181.636 10.904 181.341 11.0665 181.119 11.3028C180.898 11.5243 180.735 11.8271 180.632 12.2111C180.543 12.5951 180.499 13.0825 180.499 13.6732V16.8191C180.499 17.4098 180.543 17.9046 180.632 18.3034C180.735 18.6874 180.898 18.9975 181.119 19.2338C181.341 19.4554 181.636 19.6178 182.005 19.7212C182.389 19.8098 182.869 19.8542 183.445 19.8542H193.304C193.629 19.8542 193.791 20.0166 193.791 20.3415V22.5126C193.791 22.8375 193.629 23 193.304 23H183.313C182.19 23 181.237 22.8966 180.455 22.6898C179.672 22.4831 179.029 22.1508 178.527 21.6929C178.04 21.2203 177.678 20.6148 177.442 19.8763C177.22 19.1231 177.109 18.2148 177.109 17.1514V13.3409C177.109 12.2775 177.22 11.3766 177.442 10.6382C177.678 9.89969 178.04 9.30154 178.527 8.84369C179.029 8.37108 179.672 8.03138 180.455 7.82461C181.237 7.60308 182.19 7.49231 183.313 7.49231H193.304ZM209.023 7.49231C210.146 7.49231 211.099 7.60308 211.881 7.82461C212.679 8.03138 213.321 8.37108 213.809 8.84369C214.311 9.30154 214.673 9.89969 214.894 10.6382C215.116 11.3766 215.227 12.2775 215.227 13.3409V17.1514C215.227 18.2148 215.116 19.1231 214.894 19.8763C214.673 20.6148 214.311 21.2203 213.809 21.6929C213.321 22.1508 212.679 22.4831 211.881 22.6898C211.099 22.8966 210.146 23 209.023 23H202.178C201.055 23 200.103 22.8966 199.32 22.6898C198.537 22.4831 197.895 22.1508 197.393 21.6929C196.905 21.2203 196.543 20.6148 196.307 19.8763C196.086 19.1231 195.975 18.2148 195.975 17.1514V13.3409C195.975 12.2775 196.086 11.3766 196.307 10.6382C196.543 9.89969 196.905 9.30154 197.393 8.84369C197.895 8.37108 198.537 8.03138 199.32 7.82461C200.103 7.60308 201.055 7.49231 202.178 7.49231H209.023ZM199.364 16.9077C199.364 17.4837 199.409 17.9711 199.497 18.3698C199.601 18.7538 199.763 19.064 199.985 19.3003C200.206 19.5218 200.502 19.6843 200.871 19.7877C201.255 19.8763 201.735 19.9206 202.311 19.9206H208.891C209.467 19.9206 209.939 19.8763 210.308 19.7877C210.692 19.6843 210.995 19.5218 211.217 19.3003C211.438 19.064 211.593 18.7538 211.682 18.3698C211.785 17.9711 211.837 17.4837 211.837 16.9077V13.5846C211.837 13.0086 211.785 12.5286 211.682 12.1446C211.593 11.7458 211.438 11.4357 211.217 11.2142C210.995 10.9778 210.692 10.8154 210.308 10.7268C209.939 10.6234 209.467 10.5717 208.891 10.5717H202.311C201.735 10.5717 201.255 10.6234 200.871 10.7268C200.502 10.8154 200.206 10.9778 199.985 11.2142C199.763 11.4357 199.601 11.7458 199.497 12.1446C199.409 12.5286 199.364 13.0086 199.364 13.5846V16.9077ZM233.999 7.49231C234.324 7.49231 234.486 7.65477 234.486 7.97969V10.1508C234.486 10.4905 234.324 10.6603 233.999 10.6603H224.14C223.564 10.6603 223.084 10.712 222.7 10.8154C222.331 10.904 222.036 11.0665 221.814 11.3028C221.592 11.5243 221.43 11.8271 221.327 12.2111C221.238 12.5951 221.194 13.0825 221.194 13.6732V16.8191C221.194 17.4098 221.238 17.9046 221.327 18.3034C221.43 18.6874 221.592 18.9975 221.814 19.2338C222.036 19.4554 222.331 19.6178 222.7 19.7212C223.084 19.8098 223.564 19.8542 224.14 19.8542H233.999C234.324 19.8542 234.486 20.0166 234.486 20.3415V22.5126C234.486 22.8375 234.324 23 233.999 23H224.007C222.885 23 221.932 22.8966 221.149 22.6898C220.367 22.4831 219.724 22.1508 219.222 21.6929C218.735 21.2203 218.373 20.6148 218.136 19.8763C217.915 19.1231 217.804 18.2148 217.804 17.1514V13.3409C217.804 12.2775 217.915 11.3766 218.136 10.6382C218.373 9.89969 218.735 9.30154 219.222 8.84369C219.724 8.37108 220.367 8.03138 221.149 7.82461C221.932 7.60308 222.885 7.49231 224.007 7.49231H233.999ZM241.233 7.49231C241.558 7.49231 241.839 7.51446 242.075 7.55877C242.311 7.60308 242.518 7.69169 242.695 7.82461C242.873 7.94277 243.028 8.11261 243.161 8.33415C243.308 8.54092 243.456 8.82154 243.604 9.176L248.212 19.8098C248.271 19.9428 248.374 20.0092 248.522 20.0092H248.788C248.935 20.0092 249.039 19.9428 249.098 19.8098L253.706 9.176C253.854 8.82154 253.994 8.54092 254.127 8.33415C254.274 8.11261 254.437 7.94277 254.614 7.82461C254.791 7.69169 254.991 7.60308 255.212 7.55877C255.449 7.51446 255.729 7.49231 256.054 7.49231H258.425C259.193 7.49231 259.71 7.66954 259.975 8.024C260.241 8.36369 260.374 8.95446 260.374 9.79631V22.5126C260.374 22.8375 260.204 23 259.865 23H257.605C257.28 23 257.118 22.8375 257.118 22.5126V10.9483C257.118 10.8006 257.058 10.7268 256.94 10.7268H256.741C256.593 10.7268 256.497 10.7858 256.453 10.904L251.978 20.8289C251.801 21.2277 251.616 21.5674 251.424 21.848C251.247 22.1138 251.047 22.3354 250.826 22.5126C250.619 22.6898 250.375 22.8154 250.095 22.8892C249.829 22.9631 249.511 23 249.142 23H248.079C247.71 23 247.385 22.9631 247.104 22.8892C246.838 22.8154 246.594 22.6898 246.373 22.5126C246.166 22.3354 245.967 22.1138 245.775 21.848C245.598 21.5674 245.42 21.2277 245.243 20.8289L240.768 10.904C240.724 10.7858 240.628 10.7268 240.48 10.7268H240.281C240.162 10.7268 240.103 10.8006 240.103 10.9483V22.5126C240.103 22.8375 239.941 23 239.616 23H237.356C237.017 23 236.847 22.8375 236.847 22.5126V9.79631C236.847 8.95446 236.98 8.36369 237.246 8.024C237.511 7.66954 238.036 7.49231 238.818 7.49231H241.233ZM273.142 7.49231C273.703 7.49231 274.176 7.61046 274.56 7.84677C274.944 8.06831 275.321 8.51138 275.69 9.176L283.023 22.4905C283.097 22.6382 283.111 22.7637 283.067 22.8671C283.038 22.9557 282.934 23 282.757 23H279.943C279.692 23 279.523 22.904 279.434 22.712L277.861 19.8542H267.449L265.92 22.712C265.817 22.904 265.647 23 265.411 23H262.531C262.339 23 262.22 22.9557 262.176 22.8671C262.147 22.7637 262.169 22.6382 262.243 22.4905L269.509 9.176C269.878 8.51138 270.24 8.06831 270.595 7.84677C270.949 7.61046 271.363 7.49231 271.835 7.49231H273.142ZM268.844 17.2843H276.465L272.943 10.7932C272.884 10.6898 272.803 10.6382 272.699 10.6382H272.566C272.463 10.6382 272.382 10.6898 272.323 10.7932L268.844 17.2843ZM287.799 7.49231C288.124 7.49231 288.287 7.65477 288.287 7.97969V19.3889C288.287 19.6991 288.442 19.8542 288.752 19.8542H294.379V7.97969C294.379 7.65477 294.542 7.49231 294.866 7.49231H297.281C297.606 7.49231 297.769 7.65477 297.769 7.97969V19.8542H303.396C303.691 19.8542 303.839 19.6991 303.839 19.3889V7.97969C303.839 7.65477 304.001 7.49231 304.326 7.49231H306.763C307.088 7.49231 307.25 7.65477 307.25 7.97969V21.1169C307.25 21.7668 307.095 22.2468 306.785 22.5569C306.475 22.8523 305.943 23 305.19 23H286.935C286.182 23 285.65 22.8523 285.34 22.5569C285.03 22.2468 284.875 21.7668 284.875 21.1169V7.97969C284.875 7.65477 285.045 7.49231 285.385 7.49231H287.799Z" fill="#2A2C2F"/>
<path d="M1.164 44V35.432H7.596V44H6.528V36.38H2.244V44H1.164ZM15.3893 40.772C15.3893 41.308 15.3173 41.784 15.1733 42.2C15.0373 42.608 14.8373 42.956 14.5733 43.244C14.3173 43.532 14.0013 43.752 13.6253 43.904C13.2573 44.048 12.8453 44.12 12.3893 44.12C11.9653 44.12 11.5733 44.048 11.2133 43.904C10.8533 43.752 10.5413 43.532 10.2773 43.244C10.0133 42.956 9.80534 42.608 9.65334 42.2C9.50934 41.784 9.43734 41.308 9.43734 40.772C9.43734 40.06 9.55734 39.46 9.79734 38.972C10.0373 38.476 10.3813 38.1 10.8293 37.844C11.2773 37.58 11.8093 37.448 12.4253 37.448C13.0093 37.448 13.5213 37.58 13.9613 37.844C14.4093 38.1 14.7573 38.476 15.0053 38.972C15.2613 39.46 15.3893 40.06 15.3893 40.772ZM10.5293 40.772C10.5293 41.276 10.5933 41.716 10.7213 42.092C10.8573 42.46 11.0653 42.744 11.3453 42.944C11.6253 43.144 11.9813 43.244 12.4133 43.244C12.8453 43.244 13.2013 43.144 13.4813 42.944C13.7613 42.744 13.9653 42.46 14.0933 42.092C14.2293 41.716 14.2973 41.276 14.2973 40.772C14.2973 40.26 14.2293 39.824 14.0933 39.464C13.9573 39.104 13.7493 38.828 13.4693 38.636C13.1973 38.436 12.8413 38.336 12.4013 38.336C11.7453 38.336 11.2693 38.552 10.9733 38.984C10.6773 39.416 10.5293 40.012 10.5293 40.772ZM20.987 37.568V38.456H18.119V44H17.063V37.568H20.987ZM25.3144 37.448C26.1064 37.448 26.7424 37.724 27.2224 38.276C27.7104 38.828 27.9544 39.66 27.9544 40.772C27.9544 41.5 27.8424 42.116 27.6184 42.62C27.4024 43.116 27.0944 43.492 26.6944 43.748C26.3024 43.996 25.8384 44.12 25.3024 44.12C24.9744 44.12 24.6824 44.076 24.4264 43.988C24.1704 43.9 23.9504 43.788 23.7664 43.652C23.5904 43.508 23.4384 43.352 23.3104 43.184H23.2384C23.2544 43.32 23.2704 43.492 23.2864 43.7C23.3024 43.908 23.3104 44.088 23.3104 44.24V46.88H22.2544V37.568H23.1184L23.2624 38.444H23.3104C23.4384 38.26 23.5904 38.092 23.7664 37.94C23.9504 37.788 24.1664 37.668 24.4144 37.58C24.6704 37.492 24.9704 37.448 25.3144 37.448ZM25.1224 38.336C24.6904 38.336 24.3424 38.42 24.0784 38.588C23.8144 38.748 23.6224 38.992 23.5024 39.32C23.3824 39.648 23.3184 40.064 23.3104 40.568V40.772C23.3104 41.3 23.3664 41.748 23.4784 42.116C23.5904 42.484 23.7784 42.764 24.0424 42.956C24.3144 43.148 24.6824 43.244 25.1464 43.244C25.5384 43.244 25.8584 43.136 26.1064 42.92C26.3624 42.704 26.5504 42.412 26.6704 42.044C26.7984 41.668 26.8624 41.24 26.8624 40.76C26.8624 40.024 26.7184 39.436 26.4304 38.996C26.1504 38.556 25.7144 38.336 25.1224 38.336ZM28.512 37.568H29.64L31.032 41.228C31.112 41.444 31.184 41.652 31.248 41.852C31.32 42.052 31.384 42.248 31.44 42.44C31.496 42.624 31.54 42.804 31.572 42.98H31.62C31.668 42.78 31.744 42.52 31.848 42.2C31.952 41.872 32.06 41.544 32.172 41.216L33.48 37.568H34.62L31.848 44.888C31.696 45.288 31.516 45.636 31.308 45.932C31.108 46.236 30.86 46.468 30.564 46.628C30.276 46.796 29.924 46.88 29.508 46.88C29.316 46.88 29.148 46.868 29.004 46.844C28.86 46.828 28.736 46.808 28.632 46.784V45.944C28.72 45.96 28.824 45.976 28.944 45.992C29.072 46.008 29.204 46.016 29.34 46.016C29.588 46.016 29.8 45.968 29.976 45.872C30.16 45.784 30.316 45.652 30.444 45.476C30.572 45.308 30.68 45.108 30.768 44.876L31.104 44.024L28.512 37.568ZM43.3532 37.568L40.7012 40.688L43.5812 44H42.3812L39.5972 40.736V44H38.6132V40.736L35.8292 44H34.6292L37.5092 40.688L34.8572 37.568H36.0092L38.6132 40.688V37.568H39.5972V40.688L42.2132 37.568H43.3532ZM45.6932 37.568V40.244H49.1852V37.568H50.2412V44H49.1852V41.132H45.6932V44H44.6372V37.568H45.6932ZM53.3338 37.568V44H52.2778V37.568H53.3338ZM52.8178 35.156C52.9778 35.156 53.1178 35.212 53.2378 35.324C53.3658 35.428 53.4298 35.596 53.4298 35.828C53.4298 36.052 53.3658 36.22 53.2378 36.332C53.1178 36.444 52.9778 36.5 52.8178 36.5C52.6418 36.5 52.4938 36.444 52.3738 36.332C52.2538 36.22 52.1938 36.052 52.1938 35.828C52.1938 35.596 52.2538 35.428 52.3738 35.324C52.4938 35.212 52.6418 35.156 52.8178 35.156ZM58.994 37.568V40.244H62.486V37.568H63.542V44H62.486V41.132H58.994V44H57.938V37.568H58.994ZM68.0146 37.46C68.7986 37.46 69.3786 37.632 69.7546 37.976C70.1306 38.32 70.3186 38.868 70.3186 39.62V44H69.5506L69.3466 43.088H69.2986C69.1146 43.32 68.9226 43.516 68.7226 43.676C68.5306 43.828 68.3066 43.94 68.0506 44.012C67.8026 44.084 67.4986 44.12 67.1386 44.12C66.7546 44.12 66.4066 44.052 66.0946 43.916C65.7906 43.78 65.5506 43.572 65.3746 43.292C65.1986 43.004 65.1106 42.644 65.1106 42.212C65.1106 41.572 65.3626 41.08 65.8666 40.736C66.3706 40.384 67.1466 40.192 68.1946 40.16L69.2866 40.124V39.74C69.2866 39.204 69.1706 38.832 68.9386 38.624C68.7066 38.416 68.3786 38.312 67.9546 38.312C67.6186 38.312 67.2986 38.364 66.9946 38.468C66.6906 38.564 66.4066 38.676 66.1426 38.804L65.8186 38.012C66.0986 37.86 66.4306 37.732 66.8146 37.628C67.1986 37.516 67.5986 37.46 68.0146 37.46ZM68.3266 40.892C67.5266 40.924 66.9706 41.052 66.6586 41.276C66.3546 41.5 66.2026 41.816 66.2026 42.224C66.2026 42.584 66.3106 42.848 66.5266 43.016C66.7506 43.184 67.0346 43.268 67.3786 43.268C67.9226 43.268 68.3746 43.12 68.7346 42.824C69.0946 42.52 69.2746 42.056 69.2746 41.432V40.856L68.3266 40.892ZM74.8852 44.12C74.3172 44.12 73.8092 44.004 73.3612 43.772C72.9212 43.54 72.5732 43.18 72.3172 42.692C72.0692 42.204 71.9452 41.58 71.9452 40.82C71.9452 40.028 72.0772 39.384 72.3412 38.888C72.6052 38.392 72.9612 38.028 73.4092 37.796C73.8652 37.564 74.3812 37.448 74.9572 37.448C75.2852 37.448 75.6012 37.484 75.9052 37.556C76.2092 37.62 76.4572 37.7 76.6492 37.796L76.3252 38.672C76.1332 38.6 75.9092 38.532 75.6532 38.468C75.3972 38.404 75.1572 38.372 74.9332 38.372C74.5012 38.372 74.1452 38.464 73.8652 38.648C73.5852 38.832 73.3772 39.104 73.2412 39.464C73.1052 39.824 73.0372 40.272 73.0372 40.808C73.0372 41.32 73.1052 41.756 73.2412 42.116C73.3772 42.476 73.5812 42.748 73.8532 42.932C74.1252 43.116 74.4652 43.208 74.8732 43.208C75.2252 43.208 75.5332 43.172 75.7972 43.1C76.0692 43.028 76.3172 42.94 76.5412 42.836V43.772C76.3252 43.884 76.0852 43.968 75.8212 44.024C75.5652 44.088 75.2532 44.12 74.8852 44.12ZM83.6628 40.772C83.6628 41.308 83.5908 41.784 83.4468 42.2C83.3108 42.608 83.1108 42.956 82.8468 43.244C82.5908 43.532 82.2748 43.752 81.8988 43.904C81.5308 44.048 81.1188 44.12 80.6628 44.12C80.2388 44.12 79.8468 44.048 79.4868 43.904C79.1268 43.752 78.8148 43.532 78.5508 43.244C78.2868 42.956 78.0788 42.608 77.9268 42.2C77.7828 41.784 77.7108 41.308 77.7108 40.772C77.7108 40.06 77.8308 39.46 78.0708 38.972C78.3108 38.476 78.6548 38.1 79.1028 37.844C79.5508 37.58 80.0828 37.448 80.6988 37.448C81.2828 37.448 81.7948 37.58 82.2348 37.844C82.6828 38.1 83.0308 38.476 83.2788 38.972C83.5348 39.46 83.6628 40.06 83.6628 40.772ZM78.8028 40.772C78.8028 41.276 78.8668 41.716 78.9948 42.092C79.1308 42.46 79.3388 42.744 79.6188 42.944C79.8988 43.144 80.2548 43.244 80.6868 43.244C81.1188 43.244 81.4748 43.144 81.7548 42.944C82.0348 42.744 82.2388 42.46 82.3668 42.092C82.5028 41.716 82.5708 41.276 82.5708 40.772C82.5708 40.26 82.5028 39.824 82.3668 39.464C82.2308 39.104 82.0228 38.828 81.7428 38.636C81.4708 38.436 81.1148 38.336 80.6748 38.336C80.0188 38.336 79.5428 38.552 79.2468 38.984C78.9508 39.416 78.8028 40.012 78.8028 40.772ZM87.9164 44.12C87.3484 44.12 86.8404 44.004 86.3924 43.772C85.9524 43.54 85.6044 43.18 85.3484 42.692C85.1004 42.204 84.9764 41.58 84.9764 40.82C84.9764 40.028 85.1084 39.384 85.3724 38.888C85.6364 38.392 85.9924 38.028 86.4404 37.796C86.8964 37.564 87.4124 37.448 87.9884 37.448C88.3164 37.448 88.6324 37.484 88.9364 37.556C89.2404 37.62 89.4884 37.7 89.6804 37.796L89.3564 38.672C89.1644 38.6 88.9404 38.532 88.6844 38.468C88.4284 38.404 88.1884 38.372 87.9644 38.372C87.5324 38.372 87.1764 38.464 86.8964 38.648C86.6164 38.832 86.4084 39.104 86.2724 39.464C86.1364 39.824 86.0684 40.272 86.0684 40.808C86.0684 41.32 86.1364 41.756 86.2724 42.116C86.4084 42.476 86.6124 42.748 86.8844 42.932C87.1564 43.116 87.4964 43.208 87.9044 43.208C88.2564 43.208 88.5644 43.172 88.8284 43.1C89.1004 43.028 89.3484 42.94 89.5724 42.836V43.772C89.3564 43.884 89.1164 43.968 88.8524 44.024C88.5964 44.088 88.2844 44.12 87.9164 44.12ZM92.098 41.492C92.098 41.564 92.094 41.668 92.086 41.804C92.086 41.932 92.082 42.072 92.074 42.224C92.066 42.368 92.058 42.508 92.05 42.644C92.042 42.772 92.034 42.876 92.026 42.956L95.47 37.568H96.766V44H95.782V40.208C95.782 40.08 95.782 39.912 95.782 39.704C95.79 39.496 95.798 39.292 95.806 39.092C95.814 38.884 95.822 38.728 95.83 38.624L92.41 44H91.102V37.568H92.098V41.492ZM102.435 44H101.379V37.568H102.435V44ZM100.227 35.828C100.227 35.62 100.283 35.472 100.395 35.384C100.507 35.288 100.639 35.24 100.791 35.24C100.943 35.24 101.075 35.288 101.187 35.384C101.299 35.472 101.355 35.62 101.355 35.828C101.355 36.028 101.299 36.18 101.187 36.284C101.075 36.38 100.943 36.428 100.791 36.428C100.639 36.428 100.507 36.38 100.395 36.284C100.283 36.18 100.227 36.028 100.227 35.828ZM102.483 35.828C102.483 35.62 102.535 35.472 102.639 35.384C102.751 35.288 102.883 35.24 103.035 35.24C103.187 35.24 103.319 35.288 103.431 35.384C103.543 35.472 103.599 35.62 103.599 35.828C103.599 36.028 103.543 36.18 103.431 36.284C103.319 36.38 103.187 36.428 103.035 36.428C102.883 36.428 102.751 36.38 102.639 36.284C102.535 36.18 102.483 36.028 102.483 35.828ZM105.997 40.712L103.777 37.568H104.977L106.633 39.992L108.277 37.568H109.465L107.245 40.712L109.585 44H108.385L106.633 41.432L104.857 44H103.669L105.997 40.712ZM116.451 37.448C117.243 37.448 117.879 37.724 118.359 38.276C118.847 38.828 119.091 39.66 119.091 40.772C119.091 41.5 118.979 42.116 118.755 42.62C118.539 43.116 118.231 43.492 117.831 43.748C117.439 43.996 116.975 44.12 116.439 44.12C116.111 44.12 115.819 44.076 115.563 43.988C115.307 43.9 115.087 43.788 114.903 43.652C114.727 43.508 114.575 43.352 114.447 43.184H114.375C114.391 43.32 114.407 43.492 114.423 43.7C114.439 43.908 114.447 44.088 114.447 44.24V46.88H113.391V37.568H114.255L114.399 38.444H114.447C114.575 38.26 114.727 38.092 114.903 37.94C115.087 37.788 115.303 37.668 115.551 37.58C115.807 37.492 116.107 37.448 116.451 37.448ZM116.259 38.336C115.827 38.336 115.479 38.42 115.215 38.588C114.951 38.748 114.759 38.992 114.639 39.32C114.519 39.648 114.455 40.064 114.447 40.568V40.772C114.447 41.3 114.503 41.748 114.615 42.116C114.727 42.484 114.915 42.764 115.179 42.956C115.451 43.148 115.819 43.244 116.283 43.244C116.675 43.244 116.995 43.136 117.243 42.92C117.499 42.704 117.687 42.412 117.807 42.044C117.935 41.668 117.999 41.24 117.999 40.76C117.999 40.024 117.855 39.436 117.567 38.996C117.287 38.556 116.851 38.336 116.259 38.336ZM123.258 37.448C123.81 37.448 124.282 37.568 124.674 37.808C125.074 38.048 125.378 38.388 125.586 38.828C125.802 39.26 125.91 39.768 125.91 40.352V40.988H121.506C121.522 41.716 121.706 42.272 122.058 42.656C122.418 43.032 122.918 43.22 123.558 43.22C123.966 43.22 124.326 43.184 124.638 43.112C124.958 43.032 125.286 42.92 125.622 42.776V43.7C125.294 43.844 124.97 43.948 124.65 44.012C124.33 44.084 123.95 44.12 123.51 44.12C122.902 44.12 122.362 43.996 121.89 43.748C121.426 43.5 121.062 43.132 120.798 42.644C120.542 42.148 120.414 41.544 120.414 40.832C120.414 40.128 120.53 39.524 120.762 39.02C121.002 38.516 121.334 38.128 121.758 37.856C122.19 37.584 122.69 37.448 123.258 37.448ZM123.246 38.312C122.742 38.312 122.342 38.476 122.046 38.804C121.758 39.124 121.586 39.572 121.53 40.148H124.806C124.806 39.78 124.75 39.46 124.638 39.188C124.526 38.916 124.354 38.704 124.122 38.552C123.898 38.392 123.606 38.312 123.246 38.312ZM134.447 37.568V44H133.499V39.896C133.499 39.728 133.503 39.552 133.511 39.368C133.527 39.184 133.543 39.004 133.559 38.828H133.523L131.423 44H130.535L128.495 38.828H128.459C128.475 39.004 128.483 39.184 128.483 39.368C128.491 39.552 128.495 39.74 128.495 39.932V44H127.547V37.568H128.951L130.979 42.74L133.043 37.568H134.447ZM142.092 40.772C142.092 41.308 142.02 41.784 141.876 42.2C141.74 42.608 141.54 42.956 141.276 43.244C141.02 43.532 140.704 43.752 140.328 43.904C139.96 44.048 139.548 44.12 139.092 44.12C138.668 44.12 138.276 44.048 137.916 43.904C137.556 43.752 137.244 43.532 136.98 43.244C136.716 42.956 136.508 42.608 136.356 42.2C136.212 41.784 136.14 41.308 136.14 40.772C136.14 40.06 136.26 39.46 136.5 38.972C136.74 38.476 137.084 38.1 137.532 37.844C137.98 37.58 138.512 37.448 139.128 37.448C139.712 37.448 140.224 37.58 140.664 37.844C141.112 38.1 141.46 38.476 141.708 38.972C141.964 39.46 142.092 40.06 142.092 40.772ZM137.232 40.772C137.232 41.276 137.296 41.716 137.424 42.092C137.56 42.46 137.768 42.744 138.048 42.944C138.328 43.144 138.684 43.244 139.116 43.244C139.548 43.244 139.904 43.144 140.184 42.944C140.464 42.744 140.668 42.46 140.796 42.092C140.932 41.716 141 41.276 141 40.772C141 40.26 140.932 39.824 140.796 39.464C140.66 39.104 140.452 38.828 140.172 38.636C139.9 38.436 139.544 38.336 139.104 38.336C138.448 38.336 137.972 38.552 137.676 38.984C137.38 39.416 137.232 40.012 137.232 40.772ZM144.822 37.568V40.244H148.314V37.568H149.37V44H148.314V41.132H144.822V44H143.766V37.568H144.822ZM155.847 38.456H153.747V44H152.703V38.456H150.627V37.568H155.847V38.456ZM164.12 38.456H162.02V44H160.976V38.456H158.9V37.568H164.12V38.456ZM167.823 37.46C168.607 37.46 169.187 37.632 169.563 37.976C169.939 38.32 170.127 38.868 170.127 39.62V44H169.359L169.155 43.088H169.107C168.923 43.32 168.731 43.516 168.531 43.676C168.339 43.828 168.115 43.94 167.859 44.012C167.611 44.084 167.307 44.12 166.947 44.12C166.563 44.12 166.215 44.052 165.903 43.916C165.599 43.78 165.359 43.572 165.183 43.292C165.007 43.004 164.919 42.644 164.919 42.212C164.919 41.572 165.171 41.08 165.675 40.736C166.179 40.384 166.955 40.192 168.003 40.16L169.095 40.124V39.74C169.095 39.204 168.979 38.832 168.747 38.624C168.515 38.416 168.187 38.312 167.763 38.312C167.427 38.312 167.107 38.364 166.803 38.468C166.499 38.564 166.215 38.676 165.951 38.804L165.627 38.012C165.907 37.86 166.239 37.732 166.623 37.628C167.007 37.516 167.407 37.46 167.823 37.46ZM168.135 40.892C167.335 40.924 166.779 41.052 166.467 41.276C166.163 41.5 166.011 41.816 166.011 42.224C166.011 42.584 166.119 42.848 166.335 43.016C166.559 43.184 166.843 43.268 167.187 43.268C167.731 43.268 168.183 43.12 168.543 42.824C168.903 42.52 169.083 42.056 169.083 41.432V40.856L168.135 40.892ZM180.272 40.772C180.272 41.308 180.2 41.784 180.056 42.2C179.92 42.608 179.72 42.956 179.456 43.244C179.2 43.532 178.884 43.752 178.508 43.904C178.14 44.048 177.728 44.12 177.272 44.12C176.848 44.12 176.456 44.048 176.096 43.904C175.736 43.752 175.424 43.532 175.16 43.244C174.896 42.956 174.688 42.608 174.536 42.2C174.392 41.784 174.32 41.308 174.32 40.772C174.32 40.06 174.44 39.46 174.68 38.972C174.92 38.476 175.264 38.1 175.712 37.844C176.16 37.58 176.692 37.448 177.308 37.448C177.892 37.448 178.404 37.58 178.844 37.844C179.292 38.1 179.64 38.476 179.888 38.972C180.144 39.46 180.272 40.06 180.272 40.772ZM175.412 40.772C175.412 41.276 175.476 41.716 175.604 42.092C175.74 42.46 175.948 42.744 176.228 42.944C176.508 43.144 176.864 43.244 177.296 43.244C177.728 43.244 178.084 43.144 178.364 42.944C178.644 42.744 178.848 42.46 178.976 42.092C179.112 41.716 179.18 41.276 179.18 40.772C179.18 40.26 179.112 39.824 178.976 39.464C178.84 39.104 178.632 38.828 178.352 38.636C178.08 38.436 177.724 38.336 177.284 38.336C176.628 38.336 176.152 38.552 175.856 38.984C175.56 39.416 175.412 40.012 175.412 40.772ZM181.61 40.136C181.61 39.2 181.702 38.404 181.886 37.748C182.078 37.084 182.37 36.556 182.762 36.164C183.162 35.764 183.674 35.496 184.298 35.36C184.818 35.248 185.326 35.148 185.822 35.06C186.318 34.972 186.782 34.892 187.214 34.82L187.394 35.744C187.186 35.776 186.954 35.816 186.698 35.864C186.442 35.904 186.182 35.948 185.918 35.996C185.654 36.036 185.398 36.08 185.15 36.128C184.91 36.168 184.698 36.208 184.514 36.248C184.25 36.304 184.014 36.4 183.806 36.536C183.598 36.664 183.418 36.84 183.266 37.064C183.122 37.288 183.006 37.564 182.918 37.892C182.83 38.22 182.778 38.608 182.762 39.056H182.834C182.946 38.904 183.098 38.748 183.29 38.588C183.49 38.428 183.726 38.292 183.998 38.18C184.278 38.068 184.594 38.012 184.946 38.012C185.506 38.012 185.97 38.136 186.338 38.384C186.714 38.624 186.994 38.96 187.178 39.392C187.37 39.824 187.466 40.328 187.466 40.904C187.466 41.616 187.342 42.212 187.094 42.692C186.846 43.172 186.502 43.532 186.062 43.772C185.622 44.004 185.11 44.12 184.526 44.12C184.086 44.12 183.686 44.036 183.326 43.868C182.966 43.692 182.658 43.436 182.402 43.1C182.146 42.764 181.95 42.348 181.814 41.852C181.678 41.356 181.61 40.784 181.61 40.136ZM184.61 43.244C184.962 43.244 185.266 43.172 185.522 43.028C185.786 42.884 185.99 42.648 186.134 42.32C186.278 41.992 186.35 41.556 186.35 41.012C186.35 40.356 186.226 39.84 185.978 39.464C185.738 39.08 185.338 38.888 184.778 38.888C184.426 38.888 184.106 38.968 183.818 39.128C183.53 39.28 183.29 39.456 183.098 39.656C182.906 39.856 182.77 40.024 182.69 40.16C182.69 40.552 182.718 40.932 182.774 41.3C182.83 41.668 182.926 42 183.062 42.296C183.206 42.584 183.402 42.816 183.65 42.992C183.906 43.16 184.226 43.244 184.61 43.244ZM191.709 44.12C191.141 44.12 190.633 44.004 190.185 43.772C189.745 43.54 189.397 43.18 189.141 42.692C188.893 42.204 188.769 41.58 188.769 40.82C188.769 40.028 188.901 39.384 189.165 38.888C189.429 38.392 189.785 38.028 190.233 37.796C190.689 37.564 191.205 37.448 191.781 37.448C192.109 37.448 192.425 37.484 192.729 37.556C193.033 37.62 193.281 37.7 193.473 37.796L193.149 38.672C192.957 38.6 192.733 38.532 192.477 38.468C192.221 38.404 191.981 38.372 191.757 38.372C191.325 38.372 190.969 38.464 190.689 38.648C190.409 38.832 190.201 39.104 190.065 39.464C189.929 39.824 189.861 40.272 189.861 40.808C189.861 41.32 189.929 41.756 190.065 42.116C190.201 42.476 190.405 42.748 190.677 42.932C190.949 43.116 191.289 43.208 191.697 43.208C192.049 43.208 192.357 43.172 192.621 43.1C192.893 43.028 193.141 42.94 193.365 42.836V43.772C193.149 43.884 192.909 43.968 192.645 44.024C192.389 44.088 192.077 44.12 191.709 44.12ZM199.791 44H198.723V38.444H196.827C196.747 39.46 196.647 40.328 196.527 41.048C196.407 41.76 196.255 42.34 196.071 42.788C195.887 43.236 195.667 43.564 195.411 43.772C195.155 43.98 194.855 44.084 194.511 44.084C194.407 44.084 194.303 44.076 194.199 44.06C194.103 44.052 194.023 44.032 193.959 44V43.208C194.007 43.224 194.059 43.236 194.115 43.244C194.171 43.252 194.227 43.256 194.283 43.256C194.459 43.256 194.619 43.184 194.763 43.04C194.907 42.896 195.035 42.676 195.147 42.38C195.267 42.084 195.375 41.712 195.471 41.264C195.567 40.808 195.651 40.272 195.723 39.656C195.795 39.04 195.859 38.344 195.915 37.568H199.791V44ZM200.825 37.568H201.953L203.345 41.228C203.425 41.444 203.497 41.652 203.561 41.852C203.633 42.052 203.697 42.248 203.753 42.44C203.809 42.624 203.853 42.804 203.885 42.98H203.933C203.981 42.78 204.057 42.52 204.161 42.2C204.265 41.872 204.373 41.544 204.485 41.216L205.793 37.568H206.933L204.161 44.888C204.009 45.288 203.829 45.636 203.621 45.932C203.421 46.236 203.173 46.468 202.877 46.628C202.589 46.796 202.237 46.88 201.821 46.88C201.629 46.88 201.461 46.868 201.317 46.844C201.173 46.828 201.049 46.808 200.945 46.784V45.944C201.033 45.96 201.137 45.976 201.257 45.992C201.385 46.008 201.517 46.016 201.653 46.016C201.901 46.016 202.113 45.968 202.289 45.872C202.473 45.784 202.629 45.652 202.757 45.476C202.885 45.308 202.993 45.108 203.081 44.876L203.417 44.024L200.825 37.568ZM211.874 37.568V38.456H209.006V44H207.95V37.568H211.874ZM218.616 40.772C218.616 41.308 218.544 41.784 218.4 42.2C218.264 42.608 218.064 42.956 217.8 43.244C217.544 43.532 217.228 43.752 216.852 43.904C216.484 44.048 216.072 44.12 215.616 44.12C215.192 44.12 214.8 44.048 214.44 43.904C214.08 43.752 213.768 43.532 213.504 43.244C213.24 42.956 213.032 42.608 212.88 42.2C212.736 41.784 212.664 41.308 212.664 40.772C212.664 40.06 212.784 39.46 213.024 38.972C213.264 38.476 213.608 38.1 214.056 37.844C214.504 37.58 215.036 37.448 215.652 37.448C216.236 37.448 216.748 37.58 217.188 37.844C217.636 38.1 217.984 38.476 218.232 38.972C218.488 39.46 218.616 40.06 218.616 40.772ZM213.756 40.772C213.756 41.276 213.82 41.716 213.948 42.092C214.084 42.46 214.292 42.744 214.572 42.944C214.852 43.144 215.208 43.244 215.64 43.244C216.072 43.244 216.428 43.144 216.708 42.944C216.988 42.744 217.192 42.46 217.32 42.092C217.456 41.716 217.524 41.276 217.524 40.772C217.524 40.26 217.456 39.824 217.32 39.464C217.184 39.104 216.976 38.828 216.696 38.636C216.424 38.436 216.068 38.336 215.628 38.336C214.972 38.336 214.496 38.552 214.2 38.984C213.904 39.416 213.756 40.012 213.756 40.772ZM225.462 39.188C225.462 39.588 225.342 39.9 225.102 40.124C224.862 40.348 224.554 40.5 224.178 40.58V40.628C224.578 40.684 224.926 40.828 225.222 41.06C225.518 41.284 225.666 41.636 225.666 42.116C225.666 42.388 225.614 42.64 225.51 42.872C225.414 43.104 225.262 43.304 225.054 43.472C224.846 43.64 224.578 43.772 224.25 43.868C223.922 43.956 223.526 44 223.062 44H220.29V37.568H223.05C223.506 37.568 223.914 37.62 224.274 37.724C224.642 37.82 224.93 37.988 225.138 38.228C225.354 38.46 225.462 38.78 225.462 39.188ZM224.574 42.116C224.574 41.748 224.434 41.484 224.154 41.324C223.874 41.164 223.462 41.084 222.918 41.084H221.346V43.148H222.942C223.47 43.148 223.874 43.072 224.154 42.92C224.434 42.76 224.574 42.492 224.574 42.116ZM224.394 39.32C224.394 39.016 224.282 38.796 224.058 38.66C223.842 38.516 223.486 38.444 222.99 38.444H221.346V40.208H222.798C223.318 40.208 223.714 40.136 223.986 39.992C224.258 39.848 224.394 39.624 224.394 39.32ZM226.196 37.568H227.324L228.716 41.228C228.796 41.444 228.868 41.652 228.932 41.852C229.004 42.052 229.068 42.248 229.124 42.44C229.18 42.624 229.224 42.804 229.256 42.98H229.304C229.352 42.78 229.428 42.52 229.532 42.2C229.636 41.872 229.744 41.544 229.856 41.216L231.164 37.568H232.304L229.532 44.888C229.38 45.288 229.2 45.636 228.992 45.932C228.792 46.236 228.544 46.468 228.248 46.628C227.96 46.796 227.608 46.88 227.192 46.88C227 46.88 226.832 46.868 226.688 46.844C226.544 46.828 226.42 46.808 226.316 46.784V45.944C226.404 45.96 226.508 45.976 226.628 45.992C226.756 46.008 226.888 46.016 227.024 46.016C227.272 46.016 227.484 45.968 227.66 45.872C227.844 45.784 228 45.652 228.128 45.476C228.256 45.308 228.364 45.108 228.452 44.876L228.788 44.024L226.196 37.568ZM238.493 39.188C238.493 39.588 238.373 39.9 238.133 40.124C237.893 40.348 237.585 40.5 237.209 40.58V40.628C237.609 40.684 237.957 40.828 238.253 41.06C238.549 41.284 238.697 41.636 238.697 42.116C238.697 42.388 238.645 42.64 238.541 42.872C238.445 43.104 238.293 43.304 238.085 43.472C237.877 43.64 237.609 43.772 237.281 43.868C236.953 43.956 236.557 44 236.093 44H233.321V37.568H236.081C236.537 37.568 236.945 37.62 237.305 37.724C237.673 37.82 237.961 37.988 238.169 38.228C238.385 38.46 238.493 38.78 238.493 39.188ZM237.605 42.116C237.605 41.748 237.465 41.484 237.185 41.324C236.905 41.164 236.493 41.084 235.949 41.084H234.377V43.148H235.973C236.501 43.148 236.905 43.072 237.185 42.92C237.465 42.76 237.605 42.492 237.605 42.116ZM237.425 39.32C237.425 39.016 237.313 38.796 237.089 38.66C236.873 38.516 236.517 38.444 236.021 38.444H234.377V40.208H235.829C236.349 40.208 236.745 40.136 237.017 39.992C237.289 39.848 237.425 39.624 237.425 39.32ZM242.671 37.46C243.455 37.46 244.035 37.632 244.411 37.976C244.787 38.32 244.975 38.868 244.975 39.62V44H244.207L244.003 43.088H243.955C243.771 43.32 243.579 43.516 243.379 43.676C243.187 43.828 242.963 43.94 242.707 44.012C242.459 44.084 242.155 44.12 241.795 44.12C241.411 44.12 241.063 44.052 240.751 43.916C240.447 43.78 240.207 43.572 240.031 43.292C239.855 43.004 239.767 42.644 239.767 42.212C239.767 41.572 240.019 41.08 240.523 40.736C241.027 40.384 241.803 40.192 242.851 40.16L243.943 40.124V39.74C243.943 39.204 243.827 38.832 243.595 38.624C243.363 38.416 243.035 38.312 242.611 38.312C242.275 38.312 241.955 38.364 241.651 38.468C241.347 38.564 241.063 38.676 240.799 38.804L240.475 38.012C240.755 37.86 241.087 37.732 241.471 37.628C241.855 37.516 242.255 37.46 242.671 37.46ZM242.983 40.892C242.183 40.924 241.627 41.052 241.315 41.276C241.011 41.5 240.859 41.816 240.859 42.224C240.859 42.584 240.967 42.848 241.183 43.016C241.407 43.184 241.691 43.268 242.035 43.268C242.579 43.268 243.031 43.12 243.391 42.824C243.751 42.52 243.931 42.056 243.931 41.432V40.856L242.983 40.892ZM248.017 37.568V40.244H251.509V37.568H252.565V44H251.509V41.132H248.017V44H246.961V37.568H248.017ZM255.658 37.568V40.244H259.15V37.568H260.206V44H259.15V41.132H255.658V44H254.602V37.568H255.658ZM262.639 44H261.415L263.251 41.3C263.003 41.236 262.763 41.136 262.531 41C262.299 40.856 262.111 40.66 261.967 40.412C261.823 40.156 261.751 39.84 261.751 39.464C261.751 38.848 261.959 38.38 262.375 38.06C262.791 37.732 263.343 37.568 264.031 37.568H266.911V44H265.855V41.444H264.295L262.639 44ZM262.771 39.476C262.771 39.844 262.907 40.12 263.179 40.304C263.459 40.48 263.847 40.568 264.343 40.568H265.855V38.444H264.139C263.651 38.444 263.299 38.54 263.083 38.732C262.875 38.924 262.771 39.172 262.771 39.476Z" fill="#2A2C2F"/>
</svg>
