<svg width="20" height="20" viewBox="0 0 20 20" fill="none" xmlns="http://www.w3.org/2000/svg">
<g clip-path="url(#clip0_158_1051)">
<mask id="mask0_158_1051" style="mask-type:luminance" maskUnits="userSpaceOnUse" x="0" y="0" width="20" height="20">
<path d="M0 1.90735e-06H20V20H0V1.90735e-06Z" fill="white"/>
</mask>
<g mask="url(#mask0_158_1051)">
<path d="M14.7266 10C14.7266 7.38957 12.6104 5.27344 10 5.27344C7.38957 5.27344 5.27344 7.38957 5.27344 10C5.27344 12.6104 7.38957 14.7266 10 14.7266C12.6104 14.7266 14.7266 12.6104 14.7266 10Z" stroke="white" stroke-width="1.17187" stroke-miterlimit="10"/>
<path d="M19.4141 11.4648V8.53516L17.9989 8.00668C17.7992 7.20266 17.4817 6.4452 17.0653 5.75391L17.6925 4.37906L15.6209 2.30746L14.2461 2.93465C13.5548 2.51828 12.7973 2.20078 11.9933 2.00106L11.4648 0.585939H8.53516L8.00668 2.00106C7.20266 2.20078 6.44519 2.51828 5.75391 2.93465L4.37906 2.30746L2.30746 4.37906L2.93465 5.75391C2.51828 6.4452 2.20078 7.20266 2.00105 8.00668L0.585938 8.53516V11.4648L2.00105 11.9933C2.20078 12.7973 2.51828 13.5548 2.93465 14.2461L2.30746 15.6209L4.37906 17.6925L5.75391 17.0654C6.44519 17.4817 7.20266 17.7992 8.00668 17.9989L8.53516 19.4141H11.4648L11.9933 17.9989C12.7973 17.7992 13.5548 17.4817 14.2461 17.0654L15.6209 17.6925L17.6925 15.6209L17.0653 14.2461C17.4817 13.5548 17.7992 12.7973 17.9989 11.9933L19.4141 11.4648Z" stroke="white" stroke-width="1.17187" stroke-miterlimit="10"/>
<path d="M12.0714 8.75698L9.58549 11.2429L7.92822 9.58562" stroke="white" stroke-width="1.17187" stroke-miterlimit="10"/>
</g>
</g>
<defs>
<clipPath id="clip0_158_1051">
<rect width="20" height="20" fill="white"/>
</clipPath>
</defs>
</svg>
