<svg width="14" height="22" viewBox="0 0 14 22" fill="none" xmlns="http://www.w3.org/2000/svg">
<path d="M7 0.5C5.2104 0.501985 3.49466 1.21378 2.22922 2.47922C0.963782 3.74466 0.251985 5.4604 0.25 7.25V14.75C0.25 16.5402 0.961159 18.2571 2.22703 19.523C3.4929 20.7888 5.20979 21.5 7 21.5C8.79021 21.5 10.5071 20.7888 11.773 19.523C13.0388 18.2571 13.75 16.5402 13.75 14.75V7.25C13.748 5.4604 13.0362 3.74466 11.7708 2.47922C10.5053 1.21378 8.7896 0.501985 7 0.5ZM12.25 14.75C12.25 16.1424 11.6969 17.4777 10.7123 18.4623C9.72774 19.4469 8.39239 20 7 20C5.60761 20 4.27226 19.4469 3.28769 18.4623C2.30312 17.4777 1.75 16.1424 1.75 14.75V7.25C1.75 5.85761 2.30312 4.52226 3.28769 3.53769C4.27226 2.55312 5.60761 2 7 2C8.39239 2 9.72774 2.55312 10.7123 3.53769C11.6969 4.52226 12.25 5.85761 12.25 7.25V14.75Z" fill="white"/>
<path d="M7 5C6.80109 5 6.61032 5.07902 6.46967 5.21967C6.32902 5.36032 6.25 5.55109 6.25 5.75V8.75C6.25 8.94891 6.32902 9.13968 6.46967 9.28033C6.61032 9.42098 6.80109 9.5 7 9.5C7.19891 9.5 7.38968 9.42098 7.53033 9.28033C7.67098 9.13968 7.75 8.94891 7.75 8.75V5.75C7.75 5.55109 7.67098 5.36032 7.53033 5.21967C7.38968 5.07902 7.19891 5 7 5Z" fill="white"/>
</svg>
