<svg width="20" height="20" viewBox="0 0 20 20" fill="none" xmlns="http://www.w3.org/2000/svg">
<path d="M13.9062 16.7578C13.6906 16.7578 13.5156 16.9328 13.5156 17.1484C13.5156 17.3641 13.6906 17.5391 13.9062 17.5391C14.1219 17.5391 14.2969 17.3641 14.2969 17.1484C14.2969 16.9328 14.1219 16.7578 13.9062 16.7578Z" fill="white"/>
<path d="M6.09375 16.7578C5.87812 16.7578 5.70312 16.9328 5.70312 17.1484C5.70312 17.3641 5.87812 17.5391 6.09375 17.5391C6.30937 17.5391 6.48438 17.3641 6.48438 17.1484C6.48438 16.9328 6.30937 16.7578 6.09375 16.7578Z" fill="white"/>
<path d="M17.4861 14.7348C17.0464 14.0541 16.4421 13.5133 15.7343 13.1641C15.6746 13.1086 15.5979 13.0715 15.5125 13.062C15.0005 12.8446 14.4608 12.7344 13.9062 12.7344H12.7344V11.7038C13.4125 11.1219 13.9001 10.3512 14.1365 9.49219H14.2969C15.1584 9.49219 15.8594 8.79125 15.8594 7.92969C15.8594 7.52141 15.7018 7.14937 15.4445 6.8707C15.469 6.84984 15.493 6.82812 15.5161 6.80512C15.7375 6.58371 15.8594 6.28945 15.8594 5.97656C15.8594 5.46238 15.5263 5.02477 15.0647 4.86734C14.9267 3.07109 13.6661 1.53609 11.9303 1.055C11.8275 0.517812 11.3841 0 10.7812 0H9.21875C8.61586 0 8.17254 0.517812 8.06969 1.055C6.3341 1.53605 5.07355 3.07078 4.93531 4.8668C4.76727 4.92379 4.61316 5.01883 4.48395 5.14801C4.26254 5.36941 4.14062 5.66367 4.14062 5.97656C4.14062 6.33449 4.30211 6.65527 4.55586 6.87039C4.29836 7.14906 4.14062 7.52125 4.14062 7.92969C4.14062 8.79125 4.84156 9.49219 5.70312 9.49219H5.86242C6.05977 10.2093 6.43395 10.8676 6.95594 11.4114C7.05402 11.5136 7.15801 11.6111 7.26562 11.7035V12.7344H6.09375C5.53914 12.7344 4.99945 12.8446 4.4875 13.062C4.40219 13.0715 4.32539 13.1086 4.26574 13.164C3.55781 13.5133 2.95359 14.0541 2.51387 14.7347C2.0448 15.4608 1.79688 16.2954 1.79688 17.1484V19.6094C1.79688 19.8251 1.97176 20 2.1875 20H17.8125C18.0282 20 18.2031 19.8251 18.2031 19.6094V17.1484C18.2031 16.2954 17.9552 15.4608 17.4861 14.7348ZM4.14062 19.2188H2.57812V17.1484C2.57812 15.9603 3.1868 14.8214 4.14062 14.1454V19.2188ZM14.2969 8.71094H14.2791C14.2907 8.58098 14.2969 8.45055 14.2969 8.32031V7.14844C14.7277 7.14844 15.0781 7.49891 15.0781 7.92969C15.0781 8.36047 14.7277 8.71094 14.2969 8.71094ZM8.04688 1.88043V3.63281C8.04688 3.84855 8.22176 4.02344 8.4375 4.02344C8.65324 4.02344 8.82812 3.84855 8.82812 3.63281V1.36965C8.82812 1.36863 8.82812 1.36762 8.82812 1.3666V1.28906C8.82812 1.04703 9.03258 0.78125 9.21875 0.78125H10.7812C10.9674 0.78125 11.1719 1.04703 11.1719 1.28906V1.3666C11.1719 1.36762 11.1719 1.36863 11.1719 1.36965V3.63281C11.1719 3.84855 11.3468 4.02344 11.5625 4.02344C11.7782 4.02344 11.9531 3.84855 11.9531 3.63281V1.88043C13.2145 2.3268 14.125 3.4682 14.275 4.80469H5.72496C5.875 3.4682 6.78555 2.3268 8.04688 1.88043ZM5.70312 8.71094C5.27234 8.71094 4.92188 8.36047 4.92188 7.92969C4.92188 7.49891 5.27234 7.14844 5.70312 7.14844V8.32031C5.70312 8.45055 5.7093 8.58102 5.72094 8.71094H5.70312ZM5.70312 6.36719H5.3125C5.09711 6.36719 4.92188 6.19195 4.92188 5.97656C4.92188 5.87234 4.96254 5.77426 5.03637 5.70047C5.11023 5.6266 5.20828 5.58594 5.3125 5.58594H14.6875C14.9029 5.58594 15.0781 5.76117 15.0781 5.97656C15.0781 6.08078 15.0375 6.17887 14.9636 6.25266C14.8898 6.32652 14.7917 6.36719 14.6875 6.36719H14.2969H13.9062H6.09375H5.70312ZM6.55535 9.03059C6.55457 9.02633 6.55383 9.02211 6.55289 9.01793C6.50754 8.78867 6.48438 8.55402 6.48438 8.32031V7.14844H13.5156V8.32031C13.5156 8.55383 13.4925 8.78832 13.4471 9.01777C13.4462 9.02199 13.4454 9.02625 13.4446 9.03051C13.2701 9.90187 12.787 10.6819 12.0834 11.2274C11.4723 11.7022 10.7518 11.9531 10 11.9531C9.24816 11.9531 8.52773 11.7022 7.91598 11.227C7.77594 11.1186 7.64266 10.9987 7.51969 10.8705C7.02691 10.3571 6.69363 9.72117 6.55535 9.03059ZM9.60938 19.2188H6.48438V18.3203C6.48438 18.1046 6.30949 17.9297 6.09375 17.9297C5.87801 17.9297 5.70312 18.1046 5.70312 18.3203V19.2188H4.92188V13.7295C5.17539 13.6339 5.43656 13.5702 5.70312 13.5388V15.9766C5.70312 16.1923 5.87801 16.3672 6.09375 16.3672C6.30949 16.3672 6.48438 16.1923 6.48438 15.9766V13.5156H7.48887L9.60938 15.7422V19.2188ZM8.04688 12.9688V12.2412C8.64965 12.5652 9.31355 12.7344 10 12.7344C10.6865 12.7344 11.3504 12.5652 11.9531 12.2412V12.9688L10 15.0195L8.04688 12.9688ZM15.0781 19.2188H14.2969V18.3203C14.2969 18.1046 14.122 17.9297 13.9062 17.9297C13.6905 17.9297 13.5156 18.1046 13.5156 18.3203V19.2188H10.3906V15.7422L12.5111 13.5156H13.5156V15.9766C13.5156 16.1923 13.6905 16.3672 13.9062 16.3672C14.122 16.3672 14.2969 16.1923 14.2969 15.9766V13.5388C14.5634 13.5702 14.8246 13.6339 15.0781 13.7295V19.2188ZM17.4219 19.2188H15.8594V14.1454C16.8132 14.8214 17.4219 15.9602 17.4219 17.1484V19.2188Z" fill="white"/>
</svg>
